<svg xmlns="http://www.w3.org/2000/svg" xmlns:xlink="http://www.w3.org/1999/xlink" version="1.1" viewBox="0 0 604 351"><defs><linearGradient id="linearGradient44" x1="0" x2="1" y1="0" y2="0" gradientTransform="matrix(95.2662,120.973,120.973,-95.2662,185.322,92.836)" gradientUnits="userSpaceOnUse" spreadMethod="pad"><stop id="stop_1" offset="0" stop-color="#d4d4d4" stop-opacity="1"></stop><stop id="stop_2" offset="1" stop-color="#d4d4d4" stop-opacity="1"></stop></linearGradient><linearGradient xlink:href="#linearGradient44" id="grad" x1="0" x2="1" y1="0" y2="0" gradientTransform="matrix(127.021,-161.297,161.297,127.021,247.095,227.219)" gradientUnits="userSpaceOnUse" spreadMethod="pad"></linearGradient><mask id="s_boot_mask"><path fill="#000" d="M0 0 h604 v351 H0z"></path><path id="s_boot_curtain" fill="none" stroke="#fff" stroke-dasharray="282.2066955566406 282.2066955566406" stroke-dashoffset="-282.2066955566406" stroke-linecap="round" stroke-width="9" d="M 242.382,163.675 V 215.058 H 271.353 V 207.03 H 282.595 L 295.905,214.586 H 362.262 C 364.29,197.819 355.962,188.695 347.558,188.186 C 337.136,187.554 326.406,184.468 319.949,182.152 C 314.045,180.035 308.661,177.287 304.297,174.192 C 297.579,169.431 292.997,163.85 290.482,158.487"></path></mask><mask id="s_bot_mask"><path fill="#000" d="M0 0 h604 v351 H0z"></path><path id="s_bot_curtain" fill="none" stroke="#fff" stroke-dasharray="301.8171691894531 301.8171691894531" stroke-dashoffset="301.8171691894531" stroke-linecap="round" stroke-width="9" d="M 290.482,158.487 C 288.869,155.046 283.85,151.402 278.842,151.623 C 272.731,151.894 266.374,151.767 260.478,149.77 C 249.406,146.021 240.411,136.603 240.77,122.039 L 241.013,112.199 C 241.847,95.2393 254.315,85.9887 270.505,84.8567 H 331.781 C 352.554,84.8567 363.302,100.266 363.302,111.695 V 124.395 C 363.302,133.539 356.884,144.478 345.448,149.171 C 337.482,152.439 328.038,151.715 319.731,151.715"></path></mask><mask id="lip_left_mask"><path fill="#000" d="M0 0 h604 v351 H0z"></path><path id="lip_left_curtain" fill="none" stroke="#fff" stroke-dasharray="17.941259384155273 17.941259384155273" stroke-dashoffset="-17.941259384155273" stroke-linecap="round" stroke-width="6.1" d="M 286.053,135.817 C 290.279,139.826 296.119,142.329 302.315,142.333"></path></mask><mask id="lip_right_mask"><path fill="#000" d="M0 0 h604 v351 H0z"></path><path id="lip_right_curtain" fill="none" stroke="#fff" stroke-dasharray="18.040061950683594 18.040061950683594" stroke-dashoffset="18.040061950683594" stroke-linecap="round" stroke-width="6.1" d="M 302.315,142.333 C 307.789,142.337 313.541,140.393 318.705,135.817"></path></mask><mask id="rotor_mask"><path fill="#fff" d="M0 0 h604 v351 H0z"></path><path fill="#000" d="M 228.514,80.7988 H 374.34 V 151.932 H 228.514 Z"></path></mask><style>.grad{fill:url(#grad)}</style></defs><g transform="translate(302 183.818)"><g id="main"><g transform="translate(-302 -183.818)"><g mask="url(#rotor_mask)"><g id="fan" transform="translate(0 30)"><path class="grad" d="M 299.318,67.8569 V 80.7983 H 304.756 V 63.3354 V 62.7983 V 61.0776 V 60.685 C 304.756,59.1824 303.541,57.9663 302.037,57.9663 V 57.9643 C 300.534,57.9643 299.318,59.1804 299.318,60.6831 V 61.1362 V 62.7358 Z"></path><g transform="translate(302 61.938)"><g id="rotor" transform="scale(1 1)"><g transform="translate(-302 -61.938)"><g><path class="grad" d="M 282.65,58.4995 C 273.174,58.4995 265.496,60.0383 265.496,61.937 C 265.496,63.8357 273.174,65.3765 282.65,65.3765 C 290.749,65.3765 297.517,64.2478 299.318,62.7358 V 61.1362 C 297.517,59.6242 290.749,58.4995 282.65,58.4995 Z M 321.348,58.4995 C 313.36,58.4995 306.667,59.5963 304.756,61.0776 V 62.7983 C 306.667,64.2823 313.36,65.3765 321.348,65.3765 C 330.824,65.3765 338.508,63.8376 338.508,61.939 C 338.508,60.0403 330.824,58.4995 321.348,58.4995 Z"></path></g></g></g></g></g></g><g mask="url(#s_boot_mask)"><path class="grad" d="M 291.697,160.664 L 295.252,158.855 C 296.584,161.454 301.12,166.422 303.973,168.957 C 312.035,176.118 332.017,182.928 346.826,184.125 C 352.49,184.581 356.979,186.941 359.998,190.174 C 363.015,193.408 364.618,197.326 365.508,200.986 C 367.293,208.306 366.326,215.115 366.326,215.115 L 365.855,218.604 H 294.863 L 281.416,211.127 H 275.369 V 218.99 H 238.365 V 163.676 H 246.398 V 210.961 H 267.338 V 203.098 H 283.496 L 296.945,210.57 H 358.537 C 358.542,208.464 358.386,205.673 357.705,202.889 C 357.033,200.127 355.875,197.528 354.127,195.654 C 352.379,193.782 350.101,192.448 346.18,192.131 C 329.704,190.799 309.4,184.517 298.639,174.957 C 295.284,171.977 290.574,167.327 288.111,162.525 L 288.088,162.48 Z"></path></g><g mask="url(#s_bot_mask)"><path class="grad" d="M 272.062 80.7988 C 252.884 80.7988 236.693 94.3965 236.693 113.924 L 236.693 122.602 C 236.693 142.127 252.884 155.727 272.062 155.727 L 279.348 155.727 C 282.572 155.727 285.507 157.515 286.994 160.375 L 288.088 162.48 L 291.697 160.664 L 295.234 158.826 L 294.117 156.676 C 291.256 151.168 285.552 147.701 279.344 147.701 L 272.061 147.701 C 256.502 147.701 244.723 137.817 244.723 122.605 L 244.723 113.926 C 244.723 98.7118 256.502 88.8301 272.061 88.8301 L 331.938 88.8301 C 347.497 88.8301 359.277 98.7091 359.277 113.926 L 359.277 122.605 C 359.277 137.817 347.497 147.701 331.938 147.701 L 319.73 147.701 L 319.73 155.73 L 331.938 155.73 C 351.117 155.73 367.305 142.127 367.305 122.605 L 367.305 113.926 C 367.305 94.3998 351.116 80.7988 331.938 80.7988 L 306.844 80.7988 L 304.756 80.7988 L 299.318 80.7988 L 297.541 80.7988 L 272.062 80.7988 z "></path></g><g transform="translate(333.093 116.253)"><g id="right_eye" transform="scale(0 0)" data-cx="333.093" data-cy="116.253"><g transform="translate(-333.093 -116.253)"><path class="grad" id="right_eye_shape" d="M 333.092,102.256 C 325.405,102.256 319.098,108.567 319.098,116.254 C 319.098,123.941 325.405,130.25 333.092,130.25 C 340.777,130.25 347.088,123.941 347.088,116.254 C 347.088,108.567 340.777,102.256 333.092,102.256 Z M 333.092,108.352 C 337.502,108.352 340.992,111.845 340.992,116.254 C 340.992,120.665 337.502,124.154 333.092,124.154 C 328.681,124.154 325.189,120.665 325.189,116.254 C 325.189,111.845 328.681,108.352 333.092,108.352 Z"></path></g></g></g><g transform="translate(271.193 116.253)"><g id="left_eye" transform="scale(0 0)" data-cx="271.193" data-cy="116.253"><g transform="translate(-271.193 -116.253)"><path class="grad" id="left_eye_shape" d="M 271.193,102.256 C 263.505,102.256 257.197,108.567 257.197,116.254 C 257.197,123.941 263.505,130.25 271.193,130.25 C 278.881,130.25 285.189,123.941 285.189,116.254 C 285.189,108.567 278.881,102.256 271.193,102.256 Z M 271.193,108.352 C 275.605,108.352 279.098,111.845 279.098,116.254 C 279.098,120.665 275.605,124.154 271.193,124.154 C 266.783,124.154 263.291,120.665 263.291,116.254 C 263.291,111.845 266.783,108.352 271.193,108.352 Z"></path></g></g></g><g mask="url(#lip_left_mask)"><path id="left_lip" class="grad" d="M 302.314 139.391 C 296.697 139.375 291.969 137.392 287.967 133.727 L 284.139 137.906 C 289.066 142.421 295.321 145.038 302.314 145.055 L 302.314 139.391 z"></path></g><g mask="url(#lip_right_mask)"><path id="right_lip" class="grad" d="M 302.314,139.391 C 302.337,139.391 302.357,139.396 302.379,139.396 C 308.03,139.396 312.772,137.407 316.789,133.727 L 320.617,137.906 C 315.674,142.435 309.404,145.061 302.379,145.061 C 302.357,145.061 302.337,145.055 302.314,145.055 Z"></path></g><circle id="dummy" cx="0" cy="0" r="0" fill-opacity="0"></circle><g opacity="0" fill="#373e48"><path id="t_0" d="M 63.2425,244.419 V 252.566 H 70.2532 V 283.8 H 63.2425 V 291.948 H 89.1611 C 99.0064,291.948 106.95,288.555 106.95,277.963 C 106.95,274.974 104.912,269.067 99.3438,267.37 C 103.757,265.402 105.522,261.868 105.522,258.202 C 105.522,248.63 98.5304,244.419 89.1611,244.419 Z M 79.0798,252.566 H 89.1611 C 94.8638,252.566 96.6278,256.232 96.6278,258.404 C 96.6278,261.124 94.7958,263.499 89.1611,263.499 H 79.0798 Z M 79.0798,271.376 H 89.1611 C 92.8278,271.376 98.0558,273.615 98.0558,277.895 C 98.0558,282.376 92.8278,283.598 89.1611,283.598 H 79.0798 Z"></path><path id="t_1" d="M 134.624,243.468 C 118.193,243.468 110.178,256.03 110.178,268.523 C 110.178,281.018 117.92,293.036 134.624,293.036 C 151.326,293.036 158.862,280.744 158.998,268.454 C 159.136,256.03 150.985,243.468 134.624,243.468 M 134.624,251.615 C 145.828,251.615 150.308,260.58 150.172,268.591 C 150.037,276.4 145.828,284.819 134.624,284.819 C 123.42,284.819 119.21,276.467 119.006,268.66 C 118.802,260.647 123.42,251.615 134.624,251.615"></path><path id="t_2" d="M 186.116,243.468 C 169.685,243.468 161.673,256.03 161.673,268.523 C 161.673,281.018 169.413,293.036 186.116,293.036 C 202.819,293.036 210.357,280.744 210.494,268.454 C 210.627,256.03 202.479,243.468 186.116,243.468 M 186.116,251.615 C 197.32,251.615 201.802,260.58 201.666,268.591 C 201.529,276.4 197.32,284.819 186.116,284.819 C 174.912,284.819 170.702,276.467 170.498,268.66 C 170.294,260.647 174.912,251.615 186.116,251.615"></path><path id="t_3" d="M 209.702,252.566 H 248.813 V 244.419 H 209.702 Z M 233.739,252.566 L 224.775,258.032 V 291.948 H 233.739 Z"></path><path id="t_4" d="M 253.547,252.84 H 277.038 L 252.937,286.787 V 291.948 H 290.077 V 283.46 H 265.429 L 290.077,248.63 V 244.419 H 253.547 Z"></path><path id="t_5" d="M 319.263,258.202 C 319.333,253.924 324.154,251.548 328.838,251.548 C 334.947,251.548 339.634,253.994 339.634,259.152 C 339.634,264.654 333.049,265.264 329.449,265.264 C 320.078,265.264 310.165,268.524 310.165,279.454 V 291.948 H 348.666 V 283.598 H 319.13 V 279.523 C 319.13,274.363 325.511,273.346 329.449,273.346 C 339.431,273.346 348.528,271.036 348.528,258.95 C 348.528,247.679 338.207,243.808 328.702,243.808 C 319.943,243.808 310.438,248.152 310.369,258.202 Z"></path><path id="t_6" d="M 365.42,244.419 V 252.566 H 372.431 V 283.8 H 365.42 V 291.948 H 391.336 C 401.182,291.948 409.128,288.555 409.128,277.963 C 409.128,274.974 407.09,269.067 401.522,267.37 C 405.935,265.402 407.702,261.868 407.702,258.202 C 407.702,248.63 400.708,244.419 391.336,244.419 Z M 381.255,252.566 H 391.336 C 397.04,252.566 398.806,256.232 398.806,258.404 C 398.806,261.124 396.971,263.499 391.336,263.499 H 381.255 Z M 381.255,271.376 H 391.336 C 395.003,271.376 400.231,273.615 400.231,277.895 C 400.231,282.376 395.003,283.598 391.336,283.598 H 381.255 Z"></path><path id="t_7" d="M 436.798,243.468 C 420.367,243.468 412.355,256.03 412.355,268.523 C 412.355,281.018 420.096,293.036 436.798,293.036 C 453.503,293.036 461.039,280.744 461.176,268.454 C 461.31,256.03 453.163,243.468 436.798,243.468 M 436.798,251.615 C 448.002,251.615 452.486,260.58 452.348,268.591 C 452.211,276.4 448.002,284.819 436.798,284.819 C 425.595,284.819 421.387,276.467 421.18,268.66 C 420.976,260.647 425.595,251.615 436.798,251.615"></path><path id="t_8" d="M 460.384,252.566 H 499.495 V 244.419 H 460.384 Z M 484.423,252.566 L 475.459,258.032 V 291.948 H 484.423 Z"></path><path id="t_9" d="M 504.229,252.84 H 527.721 L 503.619,286.787 V 291.948 H 540.759 V 283.46 H 516.111 L 540.759,248.63 V 244.419 H 504.229 Z"></path></g></g></g></g><animate id="init" attributeType="XML" xlink:href="#s_boot_curtain" attributeName="stroke-dashoffset" to="0" dur="0.5s" begin="0.5s" keyTimes="0;1" keySplines=".33 1 .68 1" calcMode="spline" fill="freeze"></animate><animate attributeType="XML" xlink:href="#s_bot_curtain" attributeName="stroke-dashoffset" to="0" dur="0.5s" begin="init.begin" keyTimes="0;1" keySplines=".33 1 .68 1" calcMode="spline" fill="freeze"></animate><animateTransform attributeType="XML" xlink:href="#left_eye" attributeName="transform" type="scale" to="1 1" dur="0.15s" begin="init.begin+0.25s" keyTimes="0;1" keySplines=".33 1 .68 1" calcMode="spline" fill="freeze"></animateTransform><animateTransform attributeType="XML" xlink:href="#right_eye" attributeName="transform" type="scale" to="1 1" dur="0.15s" begin="init.begin+0.3s" keyTimes="0;1" keySplines=".33 1 .68 1" calcMode="spline" fill="freeze"></animateTransform><animate attributeType="XML" xlink:href="#lip_left_curtain" attributeName="stroke-dashoffset" to="0" dur="0.375s" begin="init.begin+0.35s" keyTimes="0;1" keySplines=".33 1 .68 1" calcMode="spline" fill="freeze"></animate><animate attributeType="XML" xlink:href="#lip_right_curtain" attributeName="stroke-dashoffset" to="0" dur="0.375s" begin="init.begin+0.35s" keyTimes="0;1" keySplines=".33 1 .68 1" calcMode="spline" fill="freeze"></animate><animateTransform attributeType="XML" xlink:href="#fan" attributeName="transform" type="translate" to="0 0" dur="0.15s" begin="init.begin+0.4s" keyTimes="0;1" keySplines=".33 1 .68 1" calcMode="spline" fill="freeze"></animateTransform><animateTransform attributeType="XML" xlink:href="#rotor" attributeName="transform" type="scale" values="1 1; 0 1; 1 1" dur="0.025s" begin="init.begin+0.4s" keyTimes="0;0.5;1" keySplines=".32 0 .67 0; .33 1 .68 1" calcMode="spline" fill="freeze" repeatCount="indefinite" additive="sum"></animateTransform><animate id="blink" attributeType="XML" xlink:href="#left_eye_shape" attributeName="d" values="M 271.193,102.256 C 263.505,102.256 257.197,108.639 257.197,116.254 C 257.197,123.824 263.505,130.25 271.193,130.25 C 278.881,130.25 285.189,123.913 285.189,116.254 C 285.189,108.595 278.881,102.256 271.193,102.256 Z M 271.193,108.352 C 275.605,108.352 279.098,111.816 279.098,116.254 C 279.098,120.731 275.605,124.154 271.193,124.154 C 266.783,124.154 263.291,120.73 263.291,116.254 C 263.291,111.778 266.783,108.352 271.193,108.352 Z; M 271.193,110.158 C 263.505,110.158 263.291,116.254 257.197,116.254 C 263.291,116.254 263.505,122.35 271.193,122.35 C 278.881,122.35 280.681,116.254 285.189,116.254 C 280.681,116.254 278.881,110.158 271.193,110.158 Z M 271.193,116.254 C 275.605,116.254 275.739,116.254 279.098,116.254 C 275.828,116.254 275.605,116.254 271.193,116.254 C 266.783,116.254 267.092,116.254 263.291,116.254 C 267.003,116.254 266.783,116.254 271.193,116.254 Z; M 271.193,102.256 C 263.505,102.256 257.197,108.639 257.197,116.254 C 257.197,123.824 263.505,130.25 271.193,130.25 C 278.881,130.25 285.189,123.913 285.189,116.254 C 285.189,108.595 278.881,102.256 271.193,102.256 Z M 271.193,108.352 C 275.605,108.352 279.098,111.816 279.098,116.254 C 279.098,120.731 275.605,124.154 271.193,124.154 C 266.783,124.154 263.291,120.73 263.291,116.254 C 263.291,111.778 266.783,108.352 271.193,108.352 Z" dur="0.25s" begin="init.end+2s; blink_delay.end" keyTimes="0;0.25;1" keySplines=".32 0 .67 0; .33 1 .68 1" calcMode="spline" fill="freeze"></animate><animate attributeType="XML" xlink:href="#right_eye_shape" attributeName="d" values="M 333.094,102.256 C 325.406,102.256 319.098,108.639 319.098,116.254 C 319.098,123.824 325.406,130.25 333.094,130.25 C 340.782,130.25 347.09,123.913 347.09,116.254 C 347.09,108.595 340.782,102.256 333.094,102.256 Z M 333.094,108.352 C 337.506,108.352 340.999,111.816 340.999,116.254 C 340.999,120.731 337.506,124.154 333.094,124.154 C 328.684,124.154 325.192,120.73 325.192,116.254 C 325.192,111.778 328.684,108.352 333.094,108.352 Z; M 333.094,110.158 C 325.406,110.158 325.192,116.254 319.098,116.254 C 325.189,116.254 325.406,122.35 333.094,122.35 C 340.782,122.35 340.999,116.254 347.09,116.254 C 340.999,116.254 340.782,110.158 333.094,110.158 Z M 333.094,116.254 C 337.506,116.254 337.374,116.254 340.999,116.254 C 337.374,116.254 337.506,116.254 333.094,116.254 C 328.684,116.254 328.942,116.254 325.192,116.254 C 328.942,116.254 328.684,116.254 333.094,116.254 Z; M 333.094,102.256 C 325.406,102.256 319.098,108.639 319.098,116.254 C 319.098,123.824 325.406,130.25 333.094,130.25 C 340.782,130.25 347.09,123.913 347.09,116.254 C 347.09,108.595 340.782,102.256 333.094,102.256 Z M 333.094,108.352 C 337.506,108.352 340.999,111.816 340.999,116.254 C 340.999,120.731 337.506,124.154 333.094,124.154 C 328.684,124.154 325.192,120.73 325.192,116.254 C 325.192,111.778 328.684,108.352 333.094,108.352 Z" dur="0.25s" begin="init.end+2s; blink_delay.end" keyTimes="0;0.25;1" keySplines=".32 0 .67 0; .33 1 .68 1" calcMode="spline" fill="freeze"></animate><animate attributeType="XML" xlink:href="#left_lip" attributeName="d" values="M 302.314 139.391 L 302.314 139.391 C 296.697 139.375 291.969 137.392 287.967 133.727 L 284.139 137.906 C 289.066 142.421 295.321 145.038 302.314 145.055 L 302.314 139.391 z; M 302.379 145.061 L 302.379 139.396 C 296.732 139.396 290.78 137.39 288.756 129.838 L 283.352 131.543 C 285.912 141.098 295.359 145.061 302.379 145.061 L 302.379 145.061 z; M 302.314 139.391 L 302.314 139.391 C 296.697 139.375 291.969 137.392 287.967 133.727 L 284.139 137.906 C 289.066 142.421 295.321 145.038 302.314 145.055 L 302.314 139.391 z" dur="0.25s" begin="init.end+2s; blink_delay.end" keyTimes="0;0.25;1" keySplines=".32 0 .67 0; .33 1 .68 1" calcMode="spline" fill="freeze"></animate><animate attributeType="XML" xlink:href="#lip_left_curtain" attributeName="d" values="M 286.053,135.817 C 290.279,139.826 296.119,142.329 302.315,142.333; M 285.986,130.712 C 288.665,139.406 296.166,142.381 302.362,142.385; M 286.053,135.817 C 290.279,139.826 296.119,142.329 302.315,142.333" dur="0.25s" begin="init.end+2s; blink_delay.end" keyTimes="0;0.25;1" keySplines=".32 0 .67 0; .33 1 .68 1" calcMode="spline" fill="freeze"></animate><animate attributeType="XML" xlink:href="#right_lip" attributeName="d" values="M 302.314,139.391 C 302.337,139.391 302.357,139.396 302.379,139.396 C 308.03,139.396 312.772,137.407 316.789,133.727 L 320.617,137.906 C 315.674,142.435 309.404,145.061 302.379,145.061 C 302.357,145.061 302.337,145.055 302.314,145.055 Z; M 302.379 145.061 C 309.404 145.061 319.09 140.186 321.406 131.543 L 316 129.838 C 313.983 136.242 308.03 139.396 302.379 139.396 L 302.379 145.061 z; M 302.314,139.391 C 302.337,139.391 302.357,139.396 302.379,139.396 C 308.03,139.396 312.772,137.407 316.789,133.727 L 320.617,137.906 C 315.674,142.435 309.404,145.061 302.379,145.061 C 302.357,145.061 302.337,145.055 302.314,145.055 Z" dur="0.25s" begin="init.end+2s; blink_delay.end" keyTimes="0;0.25;1" keySplines=".32 0 .67 0; .33 1 .68 1" calcMode="spline" fill="freeze"></animate><animate attributeType="XML" xlink:href="#lip_right_curtain" attributeName="d" values="M 302.315,142.333 C 307.789,142.337 313.541,140.393 318.705,135.817; M 302.362,142.385 C 307.836,142.389 316.161,139.098 318.586,130.654; M 302.315,142.333 C 307.789,142.337 313.541,140.393 318.705,135.817" dur="0.25s" begin="init.end+2s; blink_delay.end" keyTimes="0;0.25;1" keySplines=".32 0 .67 0; .33 1 .68 1" calcMode="spline" fill="freeze"></animate><animate id="blink_delay" attributeType="XML" xlink:href="#dummy" attributeName="cx" values="0;-100" dur="5s" begin="blink.end" fill="freeze"></animate><animateTransform attributeType="XML" xlink:href="#main" attributeName="transform" type="translate" values="0 0; 0 -25; 0 -25; 0 -65; 0 -65; 0 -55; 0 -55; 0 -15; 0 -15; 0 -45; 0 -45; 0 -20; 0 -20; 0 0" dur="7.2s" begin="init.begin+1s" keyTimes="0;0.1418;0.1438;0.2847;0.2867;0.4275;0.4295;0.5704;0.5724;0.7132;0.7152;0.8561;0.8581;1" keySplines=".37 0 .63 1; .37 0 .63 1; .37 0 .63 1; .37 0 .63 1; .37 0 .63 1; .37 0 .63 1; .37 0 .63 1; .37 0 .63 1; .37 0 .63 1; .37 0 .63 1; .37 0 .63 1; .37 0 .63 1; .37 0 .63 1" calcMode="spline" repeatCount="indefinite" fill="freeze"></animateTransform><animate attributeType="XML" attributeName="stop-color" xlink:href="#stop_1" to="#c231d5" dur="0.5s" begin="init.end" keyTimes="0;1" keySplines=".33 1 .68 1" calcMode="spline" fill="freeze"></animate><animate attributeType="XML" attributeName="stop-color" xlink:href="#stop_2" to="#f99060" dur="0.5s" begin="init.end" keyTimes="0;1" keySplines=".33 1 .68 1" calcMode="spline" fill="freeze"></animate></svg>